<svg fill="none" height="16" viewBox="0 0 16 16" width="16" xmlns="http://www.w3.org/2000/svg"><path d="m8.94267 7.99994 3.52863-3.52868c.2607-.26.2607-.68263 0-.94263-.2606-.26067-.682-.26067-.9426 0l-3.5287 3.52865-3.52866-3.52865c-.26067-.26067-.68201-.26067-.94267 0-.26067.26-.26067.68263 0 .94263l3.52866 3.52868-3.52866 3.52866c-.26067.26-.26067.6827 0 .9427.13.13.30067.1953.47133.1953.17067 0 .34134-.0653.47134-.1953l3.52866-3.52869 3.5287 3.52869c.13.13.3006.1953.4713.1953s.3413-.0653.4713-.1953c.2607-.26.2607-.6827 0-.9427z" fill="#fffcfc" opacity=".7"/></svg>